<?xml version="1.0" standalone="no"?>
<!DOCTYPE svg PUBLIC "-//W3C//DTD SVG 20010904//EN"
 "http://www.w3.org/TR/2001/REC-SVG-20010904/DTD/svg10.dtd">
<svg version="1.0" xmlns="http://www.w3.org/2000/svg"
 width="700.000000pt" height="700.000000pt" viewBox="0 0 700.000000 700.000000"
 preserveAspectRatio="xMidYMid meet">
<metadata>
Created by potrace 1.11, written by Peter Selinger 2001-2013
</metadata>
<g transform="translate(0.000000,700.000000) scale(0.100000,-0.100000)"
fill="#000000" stroke="none">
<path d="M3145 6969 c-416 -76 -804 -283 -1090 -581 -44 -45 -96 -103 -115
-127 -19 -24 -40 -48 -45 -55 -59 -63 -209 -328 -268 -471 -45 -110 -99 -295
-111 -380 -3 -22 -8 -51 -11 -65 -27 -127 -27 -529 1 -621 3 -11 -14 -23 -63
-44 -536 -230 -928 -645 -1130 -1195 -25 -70 -69 -233 -79 -296 -3 -22 -7 -41
-9 -44 -18 -29 -27 -437 -13 -565 14 -133 64 -337 114 -466 l26 -68 26 16 c15
9 29 18 31 19 2 2 -8 47 -22 101 -130 503 6 1000 372 1363 241 239 528 375
856 406 352 34 698 -63 982 -274 119 -89 267 -243 320 -333 10 -16 22 -29 28
-29 22 1 170 98 169 111 -1 8 -5 30 -9 49 -27 132 15 269 112 365 46 46 150
105 185 105 9 0 20 5 24 12 6 10 8 198 1 203 -1 2 -29 5 -62 8 -394 40 -756
241 -989 550 -141 188 -242 424 -271 630 -3 27 -9 59 -11 70 -7 32 -6 264 1
321 5 43 12 78 31 173 2 12 20 67 40 124 128 367 394 661 744 822 77 35 204
79 275 94 37 8 40 11 43 46 4 42 4 41 -83 26z"/>
<path d="M3772 6944 c3 -36 6 -39 43 -47 146 -32 343 -117 485 -212 113 -75
294 -260 374 -382 207 -315 284 -689 215 -1043 -77 -394 -300 -720 -645 -942
-161 -103 -405 -186 -608 -205 -34 -3 -62 -7 -64 -8 -6 -5 -5 -192 2 -203 4
-7 15 -12 24 -12 35 0 139 -59 184 -104 48 -48 103 -146 113 -201 9 -50 6
-158 -4 -194 -6 -19 -10 -35 -8 -36 1 0 39 -22 84 -48 46 -26 86 -47 90 -47 5
1 31 33 58 72 125 177 361 367 555 447 30 12 64 26 75 31 37 17 109 39 195 59
385 88 809 2 1132 -229 179 -128 361 -345 448 -535 55 -121 58 -128 85 -220
64 -220 72 -459 24 -692 -6 -29 -10 -55 -10 -58 0 -2 -6 -23 -14 -46 -8 -23
-15 -47 -15 -54 0 -12 57 -42 64 -34 12 13 78 233 99 329 36 165 38 184 42
405 2 184 -1 230 -29 400 -14 83 -60 244 -103 355 -102 267 -277 528 -489 732
-49 47 -107 96 -204 171 -15 12 -72 50 -140 93 -52 33 -175 95 -262 133 -67
29 -77 36 -73 55 21 86 27 427 10 551 -51 369 -180 684 -403 985 -71 95 -274
298 -372 372 -274 206 -587 341 -918 393 l-43 7 3 -38z"/>
<path d="M3313 5308 c-282 -30 -594 -142 -819 -296 -140 -96 -130 -83 -98
-138 47 -80 137 -196 204 -262 l63 -62 26 23 c124 111 386 222 609 255 113 18
285 22 357 9 17 -3 50 -9 75 -12 166 -23 368 -104 524 -212 43 -29 82 -52 86
-51 19 8 93 83 152 156 55 66 138 192 138 207 0 11 -239 160 -329 205 -101 50
-329 132 -401 144 -19 3 -46 8 -60 11 -125 27 -385 38 -527 23z"/>
<path d="M1695 3714 c-11 -83 -13 -310 -4 -391 16 -131 20 -152 45 -254 110
-447 387 -839 769 -1089 70 -45 308 -170 325 -170 4 0 27 39 53 88 44 84 96
223 115 308 l9 41 -81 37 c-412 189 -720 620 -763 1068 -9 88 -9 247 0 304 l6
42 -47 15 c-76 25 -209 47 -318 54 l-101 6 -8 -59z"/>
<path d="M5128 3765 c-2 -2 -27 -6 -57 -9 -66 -8 -85 -12 -174 -38 l-68 -19 7
-47 c15 -98 10 -255 -11 -392 -10 -64 -37 -154 -71 -244 -122 -315 -353 -568
-661 -722 -57 -28 -101 -53 -99 -55 2 -2 6 -17 9 -34 11 -66 51 -176 103 -282
31 -62 58 -113 62 -113 9 0 238 113 277 137 102 62 241 173 343 273 289 286
483 700 520 1111 10 106 8 295 -3 382 l-7 58 -84 -2 c-46 -1 -85 -3 -86 -4z"/>
<path d="M3105 3195 c-44 -25 -84 -50 -88 -54 -5 -5 1 -27 12 -49 39 -76 87
-217 107 -317 32 -153 36 -389 9 -525 -101 -516 -442 -920 -920 -1090 -308
-109 -619 -110 -935 -3 -193 65 -357 166 -515 315 l-94 89 -31 -16 -31 -16 33
-42 c188 -241 482 -461 788 -589 117 -49 290 -104 355 -112 11 -2 34 -6 50 -9
130 -28 225 -35 410 -31 99 2 191 5 205 8 14 2 48 7 75 11 28 4 53 9 56 11 3
2 21 6 40 9 69 12 227 58 314 92 178 70 326 152 477 263 l80 59 62 -48 c131
-101 302 -198 474 -267 139 -56 275 -92 492 -129 60 -11 381 -13 460 -4 506
60 948 282 1277 644 46 50 90 100 98 112 15 21 14 23 -15 38 l-31 16 -96 -91
c-367 -348 -868 -473 -1353 -340 -297 81 -568 269 -761 525 -100 134 -211 379
-240 530 -5 28 -11 61 -14 75 -47 238 -6 567 101 800 l35 74 -22 17 c-12 9
-53 33 -90 53 l-69 37 -37 -36 c-79 -77 -221 -120 -337 -103 -62 9 -160 57
-209 103 -21 19 -39 35 -40 35 -2 0 -38 -20 -82 -45z"/>
</g>
</svg>
